<svg viewBox="0 0 1000 440" xmlns="http://www.w3.org/2000/svg">
    <g stroke="null">
        <path d="m23.113 360.31l0.89276-138.53c0.06138-9.5236 7.9037-17.265 17.427-17.204l69.263 0.44638c9.5236 0.06138 17.265 7.9037 17.204 17.427l-0.89276 138.53c-0.06138 9.5236-7.9037 17.265-17.427 17.204l-69.263-0.44638c-9.5236-0.06138-17.265-7.9037-17.204-17.427z"
            fill="#37474F" />
        <path d="m110.61 218.02l-69.263-0.44638c-2.5974-0.01674-4.3401 1.7037-4.3568 4.301l-0.80906 125.54c-0.01674 2.5974 1.7037 4.3401 4.301 4.3568l69.263 0.44638c2.5974 0.01674 4.3401-1.7037 4.3568-4.301l0.80906-125.54c0.01674-2.5974-1.7037-4.3401-4.301-4.3568z"
            fill="#BBDEFB" />
        <rect transform="matrix(.43889 .0028285 -.0028285 .43889 7.9234 214.58)" x="125.52" y="331.81" width="59.179"
            height="19.726" fill="#78909C" />
    </g>
    <g id="power-button" fill="#030104" style="pointer-events:bounding-box">
        <path d="m80.034 269.36v3.824c3.482 1.798 5.869 5.427 5.869 9.619 0 5.98-4.848 10.83-10.828 10.83-5.982 0-10.832-4.85-10.832-10.83 0-3.844 2.012-7.215 5.029-9.136v-3.975c-5.027 2.229-8.541 7.256-8.541 13.112 0 7.921 6.42 14.342 14.34 14.342 7.924 0 14.342-6.421 14.342-14.342-1e-3 -6.177-3.912-11.422-9.379-13.444z" />
        <path d="m74.795 284.65c1.576 0 1.736-0.931 1.736-2.076v-13.496c0-1.148-0.16-2.08-1.736-2.08-1.57 0-1.732 0.932-1.732 2.08v13.496c-1e-3 1.146 0.162 2.076 1.732 2.076z" />
    </g>
    <g transform="matrix(.70071 0 0 -.70071 380.37 568.69)">
        <g transform="translate(262.5 37.5) scale(.1)">
            <path d="m5351.5 2397.7h-8e3v460h8e3v-460" fill="#c46b46" />
            <path d="m2644.3 4937.8c0 99.18-80.39 179.58-179.58 179.58h-2226.6c-99.18 0-179.59-80.4-179.59-179.58v-1173.1h2585.7v1173.1"
                fill="#0d1c28" />
            <path d="m1375.5 5063.6c0 13.28-10.77 24.04-24.02 24.04-13.28 0-24.03-10.76-24.03-24.04s10.75-24.04 24.03-24.04c13.25 0 24.02 10.76 24.02 24.04"
                fill="#bac8c5" />
            <path d="m58.594 3764.7v-179.57c0-99.16 80.41-179.55 179.59-179.55h768.69v-395.31h-229.99v-152.62h1149.2v152.62h-229.99v395.31h768.69c99.19 0 179.58 80.39 179.58 179.55v179.57h-2585.7"
                fill="#fffeff" />
            <path d="m1399.5 3585.1c0 26.58-21.54 48.08-48.08 48.08-26.58 0-48.1-21.5-48.1-48.08 0-26.54 21.52-48.07 48.1-48.07 26.54 0 48.08 21.53 48.08 48.07"
                fill="#0d1c28" />
            <path id="screen-2" d="m1401.9 5015.6h-1220.9v-1162.4h2340.8v1162.4h-1119.9" fill="#243e44" />
            <path id="screen" d="m2521.9 3853.2h-2340.8v276.14l1220.9 886.25h1119.9v-1162.4" fill="#192e33" />
            <path id="light" d="m-676.28 4616.5c-14.6 68.53-81.97 112.26-150.52 97.68-68.53-14.59-112.26-81.96-97.68-150.5 14.57-68.54 81.97-112.28 150.5-97.69 68.54 14.59 112.28 81.97 97.7 150.51"
                fill="#fff" />
            <path d="m-2133.9 3954.2l324.25-796.92c19.519-47.94 74.406-71.09 122.37-51.56 47.954 19.5 71.094 74.4 51.584 122.35l-324.26 796.91-173.94-70.78h-4e-3zm296.41-977.61c-80.136-32.62-171.84 6.07-204.45 86.17l-336.12 826.09c-6.566 16.11 1.176 34.48 17.297 41.04l232.3 94.51c16.105 6.57 34.484-1.19 41.043-17.29l336.12-826.08c32.59-80.12-6.06-171.83-86.196-204.44"
                fill="#bac8c5" />
            <path d="m-2013 3775.7l607.73 609.02c36.56 36.66 36.5 96.2-0.15 132.78s-96.23 36.51-132.8-0.14l-607.7-608.99 132.92-132.67zm652.33 564.5l-629.97-631.28c-12.282-12.32-32.231-12.34-44.551-0.03l-177.52 177.13c-12.308 12.28-12.332 32.24-0.039 44.52l629.94 631.31c61.12 61.24 160.64 61.35 221.89 0.24 61.23-61.09 61.33-160.64 0.25-221.89"
                fill="#bac8c5" />
            <path d="m-1048.7 4949.6l-218.03 141.54-179.11-275.94 215.73-140.04 249.96-361.91 179.73 276.9 1.4 2.13 179.72 276.89-429.4 80.43"
                fill="#bac8c5" />
            <path d="m-1437 4575.9l59.85-29.23 144.69 145.02-56.71 32.36-147.83-148.15" fill="#bac8c5" />
            <path d="m-1808.5 3904.5c0 121.89-98.805 220.71-220.71 220.71-121.89 0-220.72-98.82-220.72-220.71s98.824-220.7 220.72-220.7c121.9 0 220.71 98.81 220.71 220.7"
                fill="#bac8c5" />
            <path d="m-1916.3 3904.5c0 62.33-50.527 112.88-112.87 112.88-62.332 0-112.87-50.55-112.87-112.88 0-62.32 50.539-112.87 112.87-112.87 62.34 0 112.87 50.55 112.87 112.87"
                fill="#625956" />
            <path d="m-1255.8 2854.4c0 242.34-196.46 438.8-438.8 438.8-242.36 0-438.8-196.46-438.8-438.8h877.61" fill="#bac8c5" />
            <path d="m2891.5 3527l-0.37 3.53 0.34-3.54 0.03 0.01-0.37 3.53 0.34-3.54c0.06 0.01 1.12 0.11 2.72 0.11 2.92 0.03 7.67-0.41 11.03-1.76 1.7-0.65 3-1.47 3.84-2.3 0.85-0.85 1.38-1.64 1.79-3.16l19.38 4.95c-1.27 5.07-3.96 9.42-7.23 12.56-4.94 4.75-10.72 6.98-15.8 8.23-5.11 1.24-9.73 1.47-13.01 1.48-2.73 0-4.51-0.18-4.78-0.21l2.09-19.89"
                fill="#e3e3e1" />
            <path d="m3510.6 3239.6c0 86.04-69.77 155.81-155.81 155.81-86.05 0-155.8-69.77-155.8-155.81 0-86.05 69.75-155.8 155.8-155.8 86.04 0 155.81 69.75 155.81 155.8"
                fill="#ee2740" />
            <path d="m3438.4 3239.6c0 46.14-37.41 83.54-83.55 83.54s-83.55-37.4-83.55-83.54 37.41-83.56 83.55-83.56 83.55 37.42 83.55 83.56"
                fill="#b9e8eb" />
            <path d="m2819.5 3525.7v-535.14c0-80.59 65.34-145.95 145.96-145.95h198.73c80.6 0 145.95 65.36 145.95 145.95v535.14h-490.64"
                fill="#ee2740" />
            <path d="m2841.3 3290.3s-0.05 0.49-0.15 1.5c-0.7 7.06-3.54 38.3-3.54 75.96-0.02 35.78 2.65 77.5 11.71 109.08 4.48 15.78 10.61 28.9 17.94 37.4 3.67 4.26 7.57 7.4 11.76 9.5 4.22 2.09 8.77 3.23 14.22 3.24v20c-8.37 0.01-16.23-1.87-23.16-5.35-12.19-6.11-21.24-16.66-28.09-29.22-10.27-18.91-16.13-42.91-19.71-68.32-3.54-25.4-4.66-52.2-4.67-76.33 0.01-44.17 3.79-79.36 3.81-79.59l19.88 2.13"
                fill="#e3e3e1" />
            <path d="m2899.2 3302.4h-115.23l-57.62-107.59v-239.48h230.45v239.48h0.01l-57.61 107.59" fill="#f7f123" />
            <path d="m252.89 3594.8v-450.18h348.71v101.28h101.28l0.2 348.9h-450.19" fill="#e0dfdd" />
            <path d="m652.39 3195.3l-50.79-50.68v101.28h101.48l-50.69-50.6" fill="#747b80" />
            <path d="m583.03 3566.5h-210.09v56.7h210.09v-56.7" fill="#109ccc" />
            <path d="m-726.52 3751.8l56.15-634.44-51.34-4.54-56.16 634.44 51.35 4.54" fill="#109ccc" />
            <path d="m-721.95 3112.8c1.27-14.3 13.87-24.88 28.19-23.58 14.32 1.25 24.88 13.87 23.63 28.19l-51.82-4.61"
                fill="#e0e0de" />
            <path d="m-765.89 3836.2l-11.98-88.93 51.35 4.54-27.45 85.43c-1.92-0.48-3.86-0.85-5.91-1.04-2.02-0.18-4.04-0.15-6.01 0"
                fill="#e0e0de" />
            <path d="m-765.89 3836.2c1.97-0.15 3.99-0.18 6.01 0 2.05 0.19 3.99 0.56 5.91 1.04l-8.28 25.84-3.64-26.88"
                fill="#109ccc" />
            <path d="m-667.16 3707.8l73.33-632.68-51.2-5.93-73.33 632.68 51.2 5.93" fill="#625956" />
            <path d="m-645.25 3069.2c1.64-14.27 14.54-24.5 28.81-22.84s24.52 14.56 22.85 28.83l-51.66-5.99" fill="#e0e0de" />
            <path d="m-708.81 3791.1l-9.55-89.22 51.2 5.93-29.75 84.65c-1.9-0.53-3.83-0.97-5.89-1.2-2-0.24-4.03-0.26-6.01-0.16"
                fill="#e0e0de" />
            <path d="m-708.81 3791.1c1.98-0.1 4.01-0.08 6.01 0.16 2.06 0.23 3.99 0.67 5.89 1.2l-8.99 25.61-2.91-26.97"
                fill="#625956" />
            <path d="m-411.76 3655.6l-100.67-628.89-50.88 8.13 100.68 628.92 50.87-8.16" fill="#ee2740" />
            <path d="m-563.55 3034.9c-2.28-14.18 7.37-27.52 21.57-29.79 14.17-2.28 27.51 7.38 29.79 21.55l-51.36 8.24"
                fill="#e0e0de" />
            <path d="m-429.28 3747.1l-33.35-83.28 50.87-8.16-5.7 89.55c-1.97 0-3.97 0.1-5.98 0.42-2.03 0.32-3.96 0.85-5.84 1.47"
                fill="#e0e0de" />
            <path d="m-429.28 3747.1c1.88-0.62 3.81-1.15 5.84-1.47 2.01-0.32 4.01-0.42 5.98-0.42l-1.73 27.08-10.09-25.19"
                fill="#ee2740" />
            <path d="m-548.99 3460.7h-275.01l61.75-606.31h327.54l61.78 606.31h-176.06" fill="#f35f36" />
        </g>
        <polygon id="light-spray" points="250,322.5 164,471 200,524 775,322.5" style="fill:transparent; stroke: transparent;"></polygon>
    </g>
</svg>